<svg id="history_edu-24px" xmlns="http://www.w3.org/2000/svg" width="48" height="48" viewBox="0 0 48 48">
  <g id="Group_286" data-name="Group 286">
    <rect id="Rectangle_263" data-name="Rectangle 263" width="48" height="48" fill="none"/>
  </g>
  <g id="Group_288" data-name="Group 288" transform="translate(2.895 8.042)">
    <g id="Group_287" data-name="Group 287">
      <path id="Path_161" data-name="Path 161" d="M16.639,4V6.774a14.237,14.237,0,0,0-5.247-1.005A14.019,14.019,0,0,0,1.44,9.891l6.695,6.695h2.232v2.232a9.4,9.4,0,0,0,6.252,2.734v4.564H10.607v6.031a4.033,4.033,0,0,0,4.021,4.021h20.1a6.023,6.023,0,0,0,6.031-6.031V4ZM14.407,16.887V12.564H9.823L7.733,10.474a10.193,10.193,0,0,1,3.659-.684,10.039,10.039,0,0,1,7.117,2.935l2.835,2.835-.4.4a5.43,5.43,0,0,1-3.86,1.608A5.566,5.566,0,0,1,14.407,16.887ZM36.743,30.135a2.01,2.01,0,0,1-4.021,0V26.115H20.66V20.908A9.366,9.366,0,0,0,23.8,18.837l.4-.4L29.887,24.1h2.835V21.269l-12.063-12V8.021H36.743Z" transform="translate(-1.44 -4)" fill="#fff"/>
    </g>
  </g>
</svg>
